<svg width="88" height="53" viewBox="0 0 88 53" fill="none" xmlns="http://www.w3.org/2000/svg">
<path d="M25.32 0.719996C26.5333 0.626664 27.7233 0.626664 28.89 0.719996C32.7633 1.09333 36.0533 2.68 38.76 5.48C39.1333 5.80667 39.3433 5.99333 39.39 6.04L41.56 3.38C42.8667 1.84 43.6367 0.953329 43.87 0.719996C43.9167 0.67333 44.1733 0.649997 44.64 0.649997C45.0133 0.649997 45.27 0.719997 45.41 0.859998L45.62 1.07V11.01V20.88L45.41 21.09L45.2 21.3H43.66C42.54 21.3 41.9333 21.2067 41.84 21.02C41.7933 20.9267 41.7 20.5067 41.56 19.76C40.7667 13.4133 38.5267 8.93333 34.84 6.32C33.6733 5.52666 32.4133 4.99 31.06 4.71C30.08 4.52333 28.7267 4.52333 27 4.71C22.8933 5.27 19.5567 6.83333 16.99 9.4C14.7033 11.6867 13.1867 14.6733 12.44 18.36C12.0667 20.2733 11.88 22.84 11.88 26.06C11.88 29.3267 12.0667 31.8933 12.44 33.76C13.4667 38.7067 15.8 42.37 19.44 44.75C22.0533 46.5233 25.1333 47.48 28.68 47.62C32.2733 47.76 34.8867 46.7567 36.52 44.61C36.94 44.0967 37.2433 43.56 37.43 43L37.57 42.44L37.64 38.94V35.37L37.5 35.23C37.4067 35.1833 37.22 35.1133 36.94 35.02C36.38 34.88 34.4667 34.81 31.2 34.81H28.89V32.85V30.89H29.73L36.1 31.03C39.7867 31.0767 42.9133 31.0767 45.48 31.03L49.89 30.89H50.45V32.85V34.81H48.56C46.9733 34.8567 46.0633 34.9967 45.83 35.23L45.62 35.37V42.51V49.58L45.41 49.79C45.1767 50.0233 44.7567 49.9767 44.15 49.65C42.47 48.6233 41.21 47.7367 40.37 46.99L39.88 46.5L39.53 46.92C38.7833 47.9 37.71 48.74 36.31 49.44C32.25 51.5867 27.5833 52.1 22.31 50.98C22.03 50.9333 21.7733 50.8867 21.54 50.84C17.2933 49.72 13.5833 47.5967 10.41 44.47C8.49667 42.5567 6.93333 40.41 5.72 38.03C2.45333 31.59 1.89333 24.9633 4.04 18.15C4.50667 16.7967 5.06667 15.4667 5.72 14.16C8.47333 8.7 12.6267 4.80333 18.18 2.47C19.2533 2.00333 20.3733 1.63 21.54 1.35C22.8933 1.02333 24.1533 0.813331 25.32 0.719996ZM45.7009 4.15V2.19H59.4909C68.6843 2.23666 73.5843 2.30666 74.1909 2.4C75.0309 2.54 75.9409 2.72666 76.9209 2.96C81.3543 4.26666 84.5276 6.74 86.4409 10.38C87.3276 12.06 87.8176 13.81 87.9109 15.63C87.9576 17.5433 87.5609 19.3633 86.7209 21.09C84.9943 24.6833 81.9609 27.2033 77.6209 28.65C77.0609 28.8367 76.5243 29 76.0109 29.14C74.8443 29.42 72.9076 29.5833 70.2009 29.63C68.5676 29.63 67.5876 29.63 67.2609 29.63H60.8909V37.54C60.8909 42.86 60.9143 45.5433 60.9609 45.59C61.1476 45.9167 62.8743 46.08 66.1409 46.08H68.1009V48.04V50H67.3309L61.7309 49.86C58.5109 49.8133 55.2909 49.8133 52.0709 49.86L46.4709 50H45.7009V48.04V46.08H47.6609C50.9276 46.08 52.6543 45.9167 52.8409 45.59V6.6C52.6543 6.27333 50.9276 6.11 47.6609 6.11H45.7009V4.15ZM72.0909 6.25C71.7643 6.20333 69.9909 6.15666 66.7709 6.11C63.2243 6.11 61.3109 6.18 61.0309 6.32C60.8443 6.41333 60.7276 6.99666 60.6809 8.07C60.6809 8.95666 60.6809 11.7333 60.6809 16.4V26.06H66.0009C69.8743 26.0133 72.3009 25.8733 73.2809 25.64C76.0809 25.0333 77.8076 23.5867 78.4609 21.3C78.7409 20.46 78.8809 18.7333 78.8809 16.12C78.9276 13.8333 78.8343 12.1767 78.6009 11.15C78.2743 9.89 77.6676 8.88666 76.7809 8.14C75.6609 7.20666 74.0976 6.57667 72.0909 6.25Z" fill="#9D8DC1"/>
</svg>
