<svg width="42" height="25" viewBox="0 0 42 25" fill="none" xmlns="http://www.w3.org/2000/svg">
<path d="M10.9375 8.6938C12.2792 3.32713 15.6333 0.643799 21 0.643799C29.05 0.643799 30.0563 6.6813 34.0813 7.68755C36.7646 8.35838 39.1125 7.35213 41.125 4.6688C39.7833 10.0355 36.4292 12.7188 31.0625 12.7188C23.0125 12.7188 22.0062 6.6813 17.9812 5.67505C15.2979 5.00422 12.95 6.01046 10.9375 8.6938ZM0.875 20.7688C2.21667 15.4021 5.57083 12.7188 10.9375 12.7188C18.9875 12.7188 19.9938 18.7563 24.0188 19.7625C26.7021 20.4334 29.05 19.4271 31.0625 16.7438C29.7208 22.1105 26.3667 24.7938 21 24.7938C12.95 24.7938 11.9438 18.7563 7.91875 17.75C5.23542 17.0792 2.8875 18.0855 0.875 20.7688Z" fill="#44A8B3"/>
</svg>
