<svg width="48" height="48" viewBox="0 0 48 48" fill="none" xmlns="http://www.w3.org/2000/svg">
<path fill-rule="evenodd" clip-rule="evenodd" d="M40.9035 40.9005H33.7845V29.7615C33.7845 27.105 33.7395 23.688 30.0855 23.688C26.382 23.688 25.8165 26.583 25.8165 29.571V40.9005H18.705V17.994H25.53V21.126H25.6275C26.577 19.3245 28.899 17.4255 32.3625 17.4255C39.5715 17.4255 40.9035 22.1685 40.9035 28.338V40.9005ZM10.6785 14.865C8.391 14.865 6.5475 13.0155 6.5475 10.7355C6.5475 8.457 8.391 6.6075 10.6785 6.6075C12.9555 6.6075 14.805 8.457 14.805 10.7355C14.805 13.0155 12.9555 14.865 10.6785 14.865ZM14.2395 40.9005H7.113V17.994H14.2395V40.9005ZM46.0005 0H2.001C0.8955 0 0 0.8955 0 1.9995V45.999C0 47.1045 0.8955 48 2.001 48H46.0005C47.1045 48 48 47.1045 48 45.999V1.9995C48 0.8955 47.1045 0 46.0005 0Z" fill="white"/>
</svg>
