<svg width="45" height="50" viewBox="0 0 45 50" fill="none" xmlns="http://www.w3.org/2000/svg">
<g id="css">
<path id="Vector" d="M4.09389 45.0018L0 0H45L40.9006 44.9946L22.4727 50L4.09389 45.0018Z" fill="#1572B6"/>
<path id="Vector_2" d="M22.5 46.1751L37.3919 42.1304L40.8952 3.68042H22.5V46.1751Z" fill="#33A9DC"/>
<path id="Vector_3" d="M22.5 19.9839H29.955L30.4691 14.3321H22.5V8.8125H22.52H36.6263L36.4914 10.2929L35.1079 25.5036H22.5V19.9839Z" fill="white"/>
<path id="Vector_4" d="M22.5346 34.3178L22.5091 34.325L16.2352 32.6642L15.8342 28.2625H12.7848H10.1782L10.9675 36.9285L22.5073 40.0678L22.5346 40.0607V34.3178Z" fill="#EBEBEB"/>
<path id="Vector_5" d="M29.4756 25.2698L28.7975 32.6608L22.5145 34.3216V40.0644L34.0635 36.9287L34.1491 35.9966L35.1279 25.2698H29.4756Z" fill="white"/>
<path id="Vector_6" d="M22.52 8.8125V12.2411V14.3179V14.3321H8.92962H8.9114L8.79839 13.0911L8.54138 10.2929L8.40649 8.8125H22.52Z" fill="#EBEBEB"/>
<path id="Vector_7" d="M22.5 19.984V23.4126V25.4894V25.5037H16.3227H16.3045L16.1915 24.2626L15.9363 21.4644L15.8014 19.984H22.5Z" fill="#EBEBEB"/>
</g>
</svg>
