<svg width="66" height="50" viewBox="0 0 66 50" fill="none" xmlns="http://www.w3.org/2000/svg">
<path id="Vector" d="M56.8247 28.7675C54.7523 28.7702 52.7076 29.2494 50.8452 30.1688C50.2621 29.1904 49.8119 28.1371 49.5065 27.0372C49.3311 26.1751 49.2905 25.2905 49.3863 24.4157C49.5878 23.4531 49.8491 22.5042 50.1688 21.5749C50.157 21.4533 50.025 20.879 48.6981 20.8599C47.3712 20.8409 46.2281 21.1149 46.1055 21.47C45.875 22.1186 45.69 22.7828 45.5516 23.4576C44.4534 26.1972 43.1016 28.8256 41.5143 31.308C40.6249 29.8337 40.2591 28.097 40.4772 26.3842C40.6787 25.4216 40.94 24.4728 41.2597 23.5434C41.2479 23.4219 41.1159 22.8475 39.789 22.8285C38.4621 22.8094 37.319 23.0835 37.1964 23.4386C37.0738 23.7937 36.9183 24.6302 36.6425 25.4262C36.3668 26.2222 33.1473 33.4958 32.3035 35.3714C31.8698 36.3247 31.4951 37.1016 31.2311 37.6259C31.2186 37.6599 31.2028 37.6927 31.184 37.7236C30.9483 38.174 30.8233 38.4195 30.8233 38.4195V38.4314C30.6419 38.7603 30.4486 39.0654 30.352 39.0654C30.1834 38.3845 30.1915 37.6711 30.3755 36.9943C30.8469 34.4705 32.0018 30.5477 31.99 30.4119C31.99 30.338 32.2068 29.6564 31.2429 29.3037C31.0193 29.1961 30.7682 29.1612 30.5243 29.2039C30.2803 29.2466 30.0554 29.3647 29.8806 29.542C29.7957 29.542 29.7368 29.7493 29.7368 29.7493C29.7368 29.7493 30.7856 25.338 27.7358 25.338C26.5481 25.5796 25.4202 26.0588 24.4185 26.7477C23.4167 27.4365 22.5612 28.3209 21.9025 29.349C21.0823 29.7994 19.3358 30.7622 17.4668 31.7989C16.7597 32.2017 16.0196 32.6044 15.3338 32.9905C15.2866 32.9429 15.2372 32.8809 15.19 32.8332C11.4779 28.8342 4.65466 26.0124 4.94927 20.6621C5.05769 18.7126 5.71998 13.5935 18.0513 7.37565C28.2001 2.31845 36.2772 3.71979 37.6749 6.82751C39.6759 11.2651 33.3476 19.5039 22.8617 20.6979C21.7017 20.9358 20.5036 20.9071 19.356 20.6138C18.2084 20.3205 17.1407 19.7701 16.2318 19.0034C15.6779 18.3933 15.593 18.3575 15.388 18.4791C15.051 18.6626 15.2678 19.2107 15.388 19.5277C15.788 20.2597 16.3291 20.9032 16.9792 21.4202C17.6293 21.9372 18.3754 22.3172 19.1732 22.5377C23.2983 23.4391 27.5992 23.0081 31.4691 21.3056C37.8328 18.8199 42.7823 11.9085 41.3304 6.11969C39.8715 0.245051 30.2294 -1.69251 21.1035 1.59157C15.3874 3.53646 10.1058 6.59992 5.55971 10.6073C0.53244 15.3618 -0.261836 19.492 0.0634161 21.2246C1.24187 27.3685 9.61123 31.3652 12.9604 34.3323C12.7907 34.43 12.6351 34.5158 12.5031 34.5873C10.8274 35.4286 4.44018 38.8056 2.83985 42.3756C1.0321 46.4271 3.12975 49.3227 4.5156 49.7136C6.60383 50.219 8.79603 50.0525 10.7862 49.2374C12.7763 48.4222 14.465 46.9989 15.6166 45.1664C16.5972 43.6464 17.2 41.9093 17.3736 40.103C17.5472 38.2967 17.2864 36.4747 16.6136 34.7922C16.6022 34.765 16.5863 34.74 16.5664 34.7184L17.8792 33.939C18.7348 33.4267 19.5786 32.9524 20.3021 32.5615C19.8115 33.9925 19.5234 35.4865 19.4466 36.9991C19.28 39.3174 19.9816 41.6143 21.4122 43.4338C21.6299 43.6233 21.8826 43.7672 22.1557 43.8572C22.4288 43.9472 22.7168 43.9815 23.0031 43.9581C24.4173 43.9581 25.0654 42.7665 25.7749 41.3509C26.6422 39.6206 27.4247 37.6092 27.4247 37.6092C27.4247 37.6092 26.4489 43.0453 29.1005 43.0453C30.0644 43.0453 31.0402 41.7775 31.4762 41.1388V41.1507C31.4762 41.1507 31.4998 41.1149 31.5493 41.0291L31.7048 40.7741V40.7503C32.0914 40.0687 32.9587 38.5196 34.2479 35.9481C35.9119 32.633 37.5146 28.4886 37.5146 28.4886C37.6692 29.3994 37.8825 30.299 38.1533 31.1817C38.5415 32.2516 39.0006 33.2938 39.5274 34.3013C39.1409 34.8494 38.9004 35.1545 38.9004 35.1545L38.9122 35.1664C38.5988 35.5811 38.2617 36.0315 37.887 36.47C36.772 37.7095 35.7375 39.0206 34.79 40.3952C34.6492 40.6261 34.6008 40.9025 34.6547 41.1683C34.7086 41.434 34.8606 41.6689 35.0799 41.8251C35.5761 42.0862 36.1416 42.1805 36.6944 42.0944C37.5274 42.0469 38.3466 41.8575 39.1173 41.5344C39.8621 41.2693 40.5648 40.896 41.2031 40.4262C41.8613 39.9651 42.391 39.3406 42.7415 38.6127C43.0919 37.8848 43.2512 37.078 43.2042 36.2698C43.13 35.2518 42.8729 34.256 42.4452 33.3313C42.5654 33.1597 42.6809 32.9905 42.7941 32.8189C44.134 30.7965 45.3418 28.6876 46.4095 26.5058C46.5641 27.4166 46.7775 28.3162 47.0483 29.1988C47.3684 30.1234 47.7626 31.0201 48.2267 31.8799C46.6852 33.0792 45.4709 34.6556 44.6984 36.4605C43.9395 38.6793 44.5287 39.6778 45.6412 39.909C46.2499 39.9514 46.8586 39.8254 47.4018 39.5444C48.2005 39.279 48.9529 38.8881 49.6314 38.3861C50.3469 37.9592 50.9461 37.3591 51.3752 36.6398C51.8043 35.9205 52.0498 35.1046 52.0897 34.2655C52.0362 33.428 51.8491 32.6047 51.5358 31.8275C53.57 31.0239 55.7757 30.7677 57.9371 31.0839C63.6738 31.7655 64.8075 35.3857 64.5907 36.9109C64.489 37.4516 64.274 37.9641 63.9602 38.4138C63.6463 38.8635 63.2409 39.2401 62.7712 39.5182C62.3728 39.7732 62.2409 39.859 62.2762 40.0425C62.3233 40.3118 62.5119 40.2975 62.8536 40.2498C63.7183 39.9781 64.4811 39.4477 65.0416 38.7287C65.602 38.0097 65.9338 37.1357 65.993 36.2222C66.1745 32.6473 62.7994 28.7269 56.8318 28.7627L56.8247 28.7675ZM12.5621 43.8485C10.6577 45.9457 8.00618 46.7369 6.86072 46.0673C5.63042 45.3523 6.11358 42.2541 8.45163 40.0329C9.83855 38.7705 11.3376 37.6401 12.9297 36.6559C13.2079 36.4843 13.618 36.2412 14.1082 35.941L14.2402 35.8671L14.5301 35.6836C14.9478 37.0987 14.9857 38.6007 14.6398 40.0356C14.294 41.4704 13.5769 42.7864 12.5621 43.8485ZM26.423 34.3156C25.7607 35.9481 24.3749 40.1307 23.5311 39.8971C22.8075 39.7017 22.3526 36.532 23.3873 33.4004C23.9097 31.8929 24.6707 30.4812 25.6405 29.2203C26.6776 28.0501 27.823 27.6593 28.0988 28.1359C27.8472 30.2686 27.2824 32.3514 26.423 34.3156ZM37.8611 39.8494C37.5829 39.9948 37.319 40.0878 37.1988 40.021C37.1139 39.9734 37.319 39.7827 37.319 39.7827C37.319 39.7827 38.7543 38.2217 39.32 37.5163C39.6452 37.1016 40.027 36.6154 40.4419 36.0649V36.2222C40.4419 38.0859 38.6577 39.3418 37.8634 39.8542L37.8611 39.8494ZM46.6853 37.8142C46.4802 37.6688 46.5156 37.1802 47.2038 35.6573C47.6823 34.6793 48.3509 33.8088 49.1695 33.0978C49.295 33.4585 49.3603 33.8379 49.3627 34.2203C49.372 35.0342 49.1146 35.8284 48.6307 36.479C48.1468 37.1295 47.4636 37.5998 46.6877 37.8165L46.6853 37.8142Z" fill="#CD6799"/>
</svg>
