<svg width="52" height="44" viewBox="0 0 52 44" fill="none" xmlns="http://www.w3.org/2000/svg">
<path d="M30.5205 21.9593C30.5205 19.5387 28.4967 17.5762 25.9999 17.5762C23.5034 17.5762 21.4792 19.5387 21.4792 21.9593C21.4792 24.3802 23.5034 26.3426 25.9999 26.3426C28.4967 26.3426 30.5205 24.3802 30.5205 21.9593Z" fill="#53C1DE"/>
<path fill-rule="evenodd" clip-rule="evenodd" d="M40.6819 13.8219C41.6365 10.0606 42.8365 3.08562 38.6063 0.720893C34.3958 -1.63352 28.9167 2.87797 26.0235 5.58599C23.1387 2.90496 17.5056 -1.58725 13.279 0.784984C9.07017 3.1473 10.3681 10.0066 11.3439 13.7915C7.41777 14.8727 0.6875 17.2014 0.6875 21.9593C0.6875 26.7037 7.41077 29.2373 11.3137 30.3175C10.3342 34.1233 9.10131 40.8846 13.3155 43.2417C17.5579 45.6135 23.1734 41.2282 26.0935 38.4906C29.0053 41.2145 34.4318 45.6285 38.6431 43.2649C42.8676 40.8938 41.7673 34.0123 40.7914 30.2055C44.5748 29.1229 51.3125 26.6445 51.3125 21.9593C51.3125 17.2472 44.5461 14.8995 40.6819 13.8219ZM40.2023 28.1881C39.5616 26.2214 38.6968 24.1301 37.6389 21.9698C38.6487 19.8604 39.4799 17.7961 40.1028 15.8421C42.9356 16.6385 49.15 18.4584 49.15 21.9593C49.15 25.4931 43.1865 27.3303 40.2023 28.1881ZM37.5594 41.4501C34.4173 43.2136 29.7498 38.9924 27.5994 36.9865C29.026 35.4737 30.4516 33.715 31.843 31.762C34.2905 31.5516 36.6026 31.2073 38.6995 30.7374C39.3863 33.4301 40.7153 39.6788 37.5594 41.4501ZM14.3961 41.425C11.2537 39.6681 12.69 33.6346 13.4105 30.8312C15.4841 31.276 17.7795 31.596 20.2328 31.7888C21.6333 33.6998 23.1002 35.4563 24.5785 36.9946C22.7521 38.7076 17.5532 43.1899 14.3961 41.425ZM2.85001 21.9593C2.85001 18.4124 9.02724 16.6056 11.9246 15.8113C12.5582 17.8091 13.3892 19.898 14.3921 22.0105C13.3762 24.1543 12.5334 26.2763 11.8939 28.2977C9.13123 27.5309 2.85001 25.5085 2.85001 21.9593ZM14.3625 2.59972C17.5178 0.828893 22.4136 5.14159 24.5081 7.08272C23.0374 8.61397 21.584 10.3573 20.1955 12.2572C17.8146 12.4712 15.5354 12.8148 13.4401 13.2751C12.654 10.2224 11.2106 4.36864 14.3625 2.59972ZM33.3901 14.5364C35.0053 14.734 36.553 14.9969 38.0061 15.3185C37.5698 16.6742 37.0261 18.0919 36.3857 19.5452C35.4574 17.8374 34.461 16.1639 33.3901 14.5364ZM26.0241 8.58117C27.0216 9.62889 28.0206 10.7989 29.0034 12.0682C27.01 11.9768 25.0133 11.9764 23.0199 12.0669C24.0035 10.8093 25.0111 9.64105 26.0241 8.58117ZM15.6328 19.5437C15.0031 18.0955 14.4642 16.6715 14.0242 15.2964C15.4686 14.983 17.009 14.7269 18.6138 14.5325C17.5399 16.1565 16.5451 17.8293 15.6328 19.5437ZM18.6599 29.5359C17.0021 29.3565 15.4384 29.1133 13.9944 28.8086C14.4414 27.4093 14.9921 25.9547 15.6353 24.4752C16.5601 26.2074 17.5701 27.8965 18.6599 29.5359ZM26.084 35.4857C25.0591 34.4132 24.0366 33.2271 23.0381 31.9514C25.0428 32.0276 27.0515 32.0278 29.0561 31.9411C28.0702 33.2401 27.0748 34.4279 26.084 35.4857ZM36.4063 24.4C37.083 25.8954 37.6534 27.3421 38.1065 28.7178C36.6385 29.0426 35.0538 29.3042 33.384 29.4984C34.4628 27.8399 35.4751 26.1404 36.4063 24.4ZM30.6361 29.7525C27.5695 29.965 24.484 29.9626 21.4164 29.7699C19.6734 27.3013 18.1217 24.7051 16.7824 22.0098C18.1153 19.3201 19.6557 16.7289 21.3904 14.2642C24.4602 14.0392 27.5488 14.0385 30.6185 14.2655C32.3384 16.7301 33.8764 19.3145 35.2402 21.9799C33.8926 24.6683 32.3442 27.2647 30.6361 29.7525ZM37.5261 2.53739C40.6823 4.30241 39.2774 10.571 38.5879 13.2969C36.4876 12.8269 34.2068 12.4773 31.819 12.2599C30.4278 10.3394 28.9865 8.59311 27.5397 7.08164C29.661 5.09869 34.4005 0.789625 37.5261 2.53739Z" fill="#53C1DE"/>
</svg>
