<svg width="29" height="44" viewBox="0 0 29 44" fill="none" xmlns="http://www.w3.org/2000/svg">
<path d="M14.7188 22C14.7188 17.9719 17.9031 14.7094 21.8281 14.7094C25.7562 14.7094 28.9375 17.9687 28.9375 22C28.9375 26.0281 25.7562 29.2906 21.8281 29.2906C17.9062 29.2906 14.7188 26.0312 14.7188 22Z" fill="#1ABCFE"/>
<path d="M0.5 36.5844C0.5 32.5563 3.68438 29.2906 7.60938 29.2906H14.7188V36.5844C14.7188 40.6094 11.5344 43.875 7.60938 43.875C3.68438 43.875 0.5 40.6094 0.5 36.5844Z" fill="#0ACF83"/>
<path d="M14.7188 0.125V14.7094H21.8281C25.7562 14.7094 28.9375 11.4437 28.9375 7.41562C28.9375 3.39062 25.7562 0.125 21.8281 0.125H14.7188Z" fill="#FF7262"/>
<path d="M0.5 7.41562C0.5 11.4437 3.68438 14.7094 7.60938 14.7094H14.7188V0.125H7.60938C3.68438 0.125 0.5 3.39062 0.5 7.41562Z" fill="#F24E1E"/>
<path d="M0.5 22C0.5 26.0281 3.68438 29.2906 7.60938 29.2906H14.7188V14.7094H7.60938C3.68438 14.7094 0.5 17.9687 0.5 22Z" fill="#A259FF"/>
</svg>
