<svg width="50" height="50" viewBox="0 0 50 50" fill="none" xmlns="http://www.w3.org/2000/svg">
<g id="js">
<path id="Vector" d="M50 0H0V50H50V0Z" fill="#F5DE19"/>
<path id="Vector_2" d="M33.5875 39.0624C34.0135 39.9277 34.6754 40.6551 35.4969 41.1606C36.3183 41.6661 37.2659 41.9292 38.2304 41.9195C40.1768 41.9195 41.4214 40.9463 41.4214 39.5981C41.4214 37.991 40.1429 37.416 38 36.4785L36.825 35.9749C33.4322 34.5303 31.1822 32.7213 31.1822 28.8963C31.1822 25.3731 33.8607 22.6892 38.0625 22.6892C39.4227 22.591 40.7817 22.8954 41.97 23.5645C43.1583 24.2336 44.1233 25.2377 44.7447 26.4517L41.0714 28.7999C40.8322 28.198 40.4156 27.683 39.877 27.3233C39.3383 26.9635 38.703 26.776 38.0554 26.7856C37.7728 26.7573 37.4874 26.7882 37.2175 26.8763C36.9475 26.9644 36.6988 27.1078 36.4873 27.2973C36.2758 27.4868 36.1061 27.7182 35.989 27.9769C35.8719 28.2357 35.81 28.5159 35.8072 28.7999C35.8072 30.2088 36.6804 30.7803 38.6964 31.657L39.8714 32.1606C43.8643 33.8731 46.1214 35.6178 46.1214 39.541C46.1214 43.7713 42.7982 46.0892 38.3357 46.0892C36.597 46.2 34.8633 45.8052 33.344 44.9525C31.8246 44.0998 30.5845 42.8257 29.7732 41.2838L33.5875 39.0624ZM16.9893 39.4695C17.7268 40.7785 18.3982 41.8856 20.0125 41.8856C21.5554 41.8856 22.5304 41.282 22.5304 38.9338V22.957H27.2286V38.9963C27.2286 43.8606 24.3715 46.0749 20.2125 46.0749C18.7424 46.1553 17.2824 45.7889 16.0245 45.024C14.7665 44.259 13.7694 43.1314 13.1643 41.7892L16.9893 39.4695Z" fill="black"/>
</g>
</svg>
