<svg width="40" height="33" viewBox="0 0 40 33" fill="none" xmlns="http://www.w3.org/2000/svg">
<path fill-rule="evenodd" clip-rule="evenodd" d="M8.30813 0.333374C6.02577 0.333374 4.33695 2.33101 4.41255 4.49744C4.48508 6.57879 4.39085 9.27439 3.7122 11.4727C3.03153 13.6774 1.88033 15.074 0 15.2534V17.2777C1.88033 17.457 3.03153 18.8537 3.7122 21.0585C4.39085 23.2567 4.48508 25.9524 4.41255 28.0337C4.33695 30.1999 6.02577 32.1977 8.30847 32.1977H31.6948C33.9773 32.1977 35.6658 30.2002 35.5902 28.0337C35.5177 25.9524 35.6118 23.2567 36.2905 21.0585C36.9715 18.8537 38.1197 17.457 40 17.2777V15.2534C38.1197 15.074 36.9715 13.6774 36.2905 11.4727C35.6118 9.27472 35.5177 6.57879 35.5902 4.49744C35.6658 2.33134 33.9773 0.333374 31.6948 0.333374H8.30813ZM27.1187 19.9479C27.1187 22.931 24.8935 24.7402 21.201 24.7402H14.9152C14.7354 24.7402 14.563 24.6687 14.4359 24.5415C14.3087 24.4144 14.2373 24.242 14.2373 24.0622V8.46897C14.2373 8.28916 14.3087 8.11672 14.4359 7.98957C14.563 7.86242 14.7354 7.79101 14.9152 7.79101H21.1652C24.244 7.79101 26.2647 9.45879 26.2647 12.0195C26.2647 13.8167 24.9055 15.4259 23.1735 15.7075V15.8015C25.5312 16.0602 27.1187 17.6927 27.1187 19.9479ZM20.5157 9.94016H16.9315V15.0025H19.9502C22.2837 15.0025 23.5705 14.0629 23.5705 12.3832C23.5705 10.8093 22.464 9.94016 20.5157 9.94016ZM16.9315 17.0114V22.5904H20.6475C23.077 22.5904 24.364 21.6154 24.364 19.7832C24.364 17.9507 23.041 17.011 20.4912 17.011L16.9315 17.0114Z" fill="#9955CE"/>
</svg>
