<svg width="50" height="50" viewBox="0 0 50 50" fill="none" xmlns="http://www.w3.org/2000/svg">
<path fill-rule="evenodd" clip-rule="evenodd" d="M11.379 8.41683C10.8103 8.40628 10.4078 8.4785 9.9827 8.5718V8.64902H10.0604C10.3322 9.20644 10.8113 9.5654 11.1466 10.0456C11.4043 10.5888 11.6629 11.1312 11.9214 11.6736C11.9478 11.6478 11.9739 11.6222 11.9992 11.5964C12.4802 11.2582 12.6994 10.7169 12.6973 9.89037C12.5044 9.68743 12.4757 9.43389 12.3091 9.19221C12.0882 8.86988 11.6587 8.68776 11.379 8.41683ZM48.9139 48.2019C49.28 48.4705 49.5253 48.8869 50 49.0556V48.9778C49.7501 48.661 49.6866 48.2238 49.4573 47.8917C49.1221 47.5565 48.7842 47.2199 48.449 46.8834C47.4627 45.5748 46.2122 44.4262 44.8817 43.4716C43.822 42.7097 41.4468 41.6818 41.004 40.4476C40.9787 40.4212 40.9524 40.3951 40.926 40.3688C41.678 40.2844 42.559 40.0125 43.253 39.8261C44.4189 39.5135 45.4613 39.5947 46.6647 39.2835C47.2084 39.1277 47.7508 38.9722 48.2935 38.8185V38.5073C47.6849 37.8827 47.2511 37.0561 46.588 36.4908C44.8506 35.0128 42.9559 33.5348 41.0038 32.3034C39.9221 31.6198 38.5835 31.1762 37.4363 30.5969C37.0504 30.4024 36.3731 30.3009 36.1177 29.9765C35.516 29.208 35.1874 28.2341 34.7224 27.3394C33.7494 25.4647 32.7924 23.4174 31.9298 21.4449C31.3423 20.1003 30.9578 18.7741 30.2243 17.5672C26.703 11.7777 22.9117 8.28294 17.0405 4.84801C15.7902 4.1177 14.2863 3.82937 12.6973 3.45248C11.8447 3.40109 10.9905 3.34864 10.1379 3.29725C9.61741 3.07982 9.07606 2.44306 8.58717 2.13391C6.6416 0.905215 1.65169 -1.76803 0.211619 1.74649C-0.698176 3.96431 1.57051 6.12863 2.38253 7.25296C2.9526 8.04126 3.68134 8.92549 4.08932 9.81183C4.35683 10.3946 4.40242 10.9794 4.63304 11.5958C5.19652 13.115 5.68621 14.7675 6.4152 16.1717C6.78444 16.8817 7.19111 17.6305 7.65708 18.2654C7.94304 18.6552 8.43167 18.8268 8.50837 19.4287C8.03054 20.099 8.00313 21.1389 7.73456 21.9879C6.52221 25.8099 6.97948 30.5598 8.74293 33.3888C9.28322 34.2567 10.5578 36.1197 12.3091 35.4047C13.8412 34.7806 13.4996 32.8461 13.9379 31.1396C14.0365 30.7519 13.9764 30.4675 14.1703 30.209V30.2862C14.6363 31.2168 15.1017 32.1474 15.5667 33.0778C16.6003 34.7416 18.4339 36.4816 19.9878 37.6542C20.7924 38.2624 21.4268 39.3146 22.4692 39.6706V39.5918H22.3914C22.1885 39.2785 21.8728 39.1469 21.6166 38.8947C21.0094 38.2993 20.3344 37.5598 19.8321 36.878C18.4183 34.9596 17.1699 32.8595 16.0324 30.6741C15.4886 29.6302 15.0164 28.4787 14.558 27.4168C14.3817 27.007 14.3838 26.3879 14.0154 26.1758C13.5136 26.9538 12.7748 27.5837 12.3866 28.5024C11.7662 29.9715 11.6863 31.7629 11.4562 33.6207C11.3202 33.6697 11.3806 33.6362 11.3005 33.6979C10.2199 33.4381 9.84064 32.3258 9.43951 31.3718C8.42455 28.9597 8.23611 25.0752 9.1293 22.2981C9.36044 21.5799 10.4062 19.3167 9.98191 18.6531C9.78002 17.9905 9.11481 17.6081 8.7424 17.1018C8.2796 16.4761 7.81943 15.653 7.49947 14.9301C6.6698 13.0494 6.28184 10.938 5.4071 9.03645C4.98857 8.12797 4.28145 7.20763 3.70057 6.3993C3.0575 5.50427 2.3372 4.84538 1.83934 3.76216C1.66197 3.37763 1.42081 2.76223 1.68384 2.36663C1.76686 2.09965 1.88546 1.98843 2.14981 1.90119C2.60023 1.55435 3.85186 2.01663 4.32072 2.2114C5.56365 2.7277 6.60259 3.21976 7.65602 3.9174C8.16126 4.25264 8.67282 4.90152 9.28348 5.081H9.98164C11.0743 5.33164 12.2975 5.15927 13.3167 5.46895C15.1197 6.01688 16.7353 6.86923 18.2025 7.79589C22.6721 10.6178 26.3271 14.636 28.8272 19.4287C29.2294 20.2004 29.4039 20.9368 29.7576 21.7557C30.4721 23.4063 31.3732 25.1044 32.0842 26.719C32.7935 28.3288 33.485 29.9541 34.4879 31.2945C35.015 31.9988 37.0523 32.3767 37.9787 32.7684C38.6276 33.0422 39.6905 33.3284 40.3043 33.6979C41.4792 34.4066 42.6159 35.2495 43.7171 36.0254C44.2674 36.4136 45.9597 37.2638 46.043 37.9633C43.316 37.8911 41.2325 38.1444 39.4514 38.895C38.9451 39.1077 38.1384 39.114 38.0551 39.7473C38.3334 40.0388 38.3774 40.4753 38.5988 40.8334C39.0229 41.5218 39.7408 42.4435 40.382 42.9279C41.0823 43.4563 41.8037 44.0217 42.5532 44.4789C43.8881 45.2933 45.3788 45.758 46.6634 46.5732C47.4235 47.0544 48.1754 47.6593 48.9139 48.2019Z" fill="#00758F"/>
</svg>
